# xmcd CD database file
#
# Track frame offsets:
#	150
#	14098
#	30101
#	44684
#	54561
#	70434
#	79068
#	92464
#	111509
#	123006
#	137250
#	152257
#	164543
#	182220
#	195952
#
# Disc length: 2798 seconds
#
# Revision: 1
# Processed by: cddbd v1.5.1PL2 Copyright (c) Steve Scherf et al.
# Submitted via: CDex 1.51
#
DISCID=bb0aec0f
DTITLE=Charley Groth - Remember Me
DYEAR=2004
DGENRE=Country
TTITLE0=Sugar Moon
TTITLE1=I Wish I Didn't Know
TTITLE2=Remember Me
TTITLE3=Pallet On Your Floor
TTITLE4=As A Rule
TTITLE5=Wahoo
TTITLE6=Deep Water
TTITLE7=Georgia On My Mind
TTITLE8=The Tickler
TTITLE9=Little Red Wagon
TTITLE10=Songwriter's Blues
TTITLE11=Spanish Fandango (Guitar Instrumental in open G tuning)
TTITLE12=Band's Playing Waltz Across Texas
TTITLE13=I Am A Pilgrim
TTITLE14=Bonus Track (Instrumental)
EXTD=YEAR: 2004
EXTT0=
EXTT1=
EXTT2=
EXTT3=
EXTT4=
EXTT5=
EXTT6=
EXTT7=
EXTT8=
EXTT9=
EXTT10=
EXTT11=
EXTT12=
EXTT13=
EXTT14=
PLAYORDER=
